<svg width="512" height="512" viewBox="0 0 512 512" fill="none" xmlns="http://www.w3.org/2000/svg">
<g clip-path="url(#clip0_911_7322)">
<path d="M218 43.4001C199.1 67.3001 183.4 87.3001 183.2 87.9001C182.9 88.7001 187.8 89.0001 198.9 89.0001H215L215.2 178L215.5 267.1L221.6 258.8C237.7 237.1 259 219 283 206.6L292 201.9V145.5V89.0001L308.6 88.8001L325.2 88.5001L290 44.5001C270.7 20.3001 254.3 0.400094 253.7 0.300094C253 0.100094 237 19.6001 218 43.4001Z" fill="url(#paint0_linear_911_7322)"/>
<path d="M107 357.5V512H146.5H186V357.5V203H146.5H107V357.5Z" fill="url(#paint1_linear_911_7322)"/>
<path d="M342.5 217.1C309.6 222.2 281 237 257.7 260.9C237.8 281.4 225.1 305 218.8 333C216.8 342.1 216.5 346.2 216.5 364C216.5 385.9 217.4 392.6 222.7 409.5C236.4 453.1 272.7 490 316 504.4C332.6 509.9 339.8 511.1 359 511.7C380.3 512.4 392.7 510.7 410.3 504.9C461.1 488.3 498.3 446.4 509.7 393C512.3 380.9 512.3 347.1 509.7 335C497.1 275.8 453 231.4 394 218.5C385.1 216.5 351.7 215.6 342.5 217.1ZM379 265.4V281.8L383.3 282.4C389.1 283.3 398.3 287.8 404.6 292.8C413.9 300.2 422 315.6 422 326.1V330H407.6H393.3L392.7 325.9C392.1 321.1 387.9 315.5 382.9 312.5C380.1 310.8 377.3 310.4 366.5 310.2C358.8 310 351.7 310.3 349.2 310.9C335.1 314.7 330.2 332.7 340.4 343.8C344.8 348.7 347.4 349.3 367 350C382.7 350.6 386.3 351 390.9 352.9C423.7 366.2 432.5 407.4 407.8 432.1C401.5 438.4 392.8 443.2 384.3 445.2L379 446.5V462.2V478H364.5H350V462.2V446.4L344.1 445.2C331.8 442.6 319.3 433.5 312.7 422.3C309.2 416.2 306 406 306 400.9V397H320.5H335V399.7C335.1 404.1 338.5 410.5 342.2 413.4C350.5 419.7 377.4 419.7 385.7 413.4C392.7 408.1 395.1 397.1 391.1 389.2C386.8 380.8 382.4 379 366.3 379C349.8 379 342.2 377.7 333.3 373.4C303.5 359.1 296.8 319.7 320.1 296C326.6 289.4 337.6 283.4 345.1 282.4L350 281.7V265.4V249H364.5H379V265.4Z" fill="url(#paint2_linear_911_7322)"/>
<path d="M0 397.5V512H39H78V397.5V283H39H0V397.5Z" fill="url(#paint3_linear_911_7322)"/>
<path d="M215 486.3V512H240.6H266.1L257.8 505.8C247.1 497.8 230.1 480.7 222.6 470.5C219.3 466.1 216.3 462.1 215.8 461.5C215.4 461 215 472.2 215 486.3Z" fill="url(#paint4_linear_911_7322)"/>
</g>
<defs>
<linearGradient id="paint0_linear_911_7322" x1="254.194" y1="267.1" x2="254.194" y2="0.298584" gradientUnits="userSpaceOnUse">
<stop stop-color="#0078BD"/>
<stop offset="1" stop-color="#18CC6C"/>
</linearGradient>
<linearGradient id="paint1_linear_911_7322" x1="146.5" y1="512" x2="146.5" y2="203" gradientUnits="userSpaceOnUse">
<stop stop-color="#0078BD"/>
<stop offset="1" stop-color="#18CC6C"/>
</linearGradient>
<linearGradient id="paint2_linear_911_7322" x1="364.075" y1="511.848" x2="364.075" y2="216.351" gradientUnits="userSpaceOnUse">
<stop stop-color="#0078BD"/>
<stop offset="1" stop-color="#18CC6C"/>
</linearGradient>
<linearGradient id="paint3_linear_911_7322" x1="39" y1="512" x2="39" y2="283" gradientUnits="userSpaceOnUse">
<stop stop-color="#0078BD"/>
<stop offset="1" stop-color="#18CC6C"/>
</linearGradient>
<linearGradient id="paint4_linear_911_7322" x1="240.55" y1="512" x2="240.55" y2="461.484" gradientUnits="userSpaceOnUse">
<stop stop-color="#0078BD"/>
<stop offset="1" stop-color="#18CC6C"/>
</linearGradient>
<clipPath id="clip0_911_7322">
<rect width="512" height="512" fill="white"/>
</clipPath>
</defs>
</svg>
